<svg xmlns="http://www.w3.org/2000/svg" fill="none" viewBox="0 0 32 32" id="Handlebars--Streamline-Svg-Logos" height="32" width="32">
  <desc>
    Handlebars Streamline Icon: https://streamlinehq.com
  </desc>
  <path fill="#c0762c" d="M11.864966666666668 12.205533333333332c1.0892666666666666 -0.0047666666666666664 2.2063333333333333 0.3077333333333333 3.052933333333333 1.012 0.43383333333333335 0.35109999999999997 0.7842666666666666 0.7917000000000001 1.0818333333333332 1.2607333333333333 0.5354666666666666 -0.8655666666666666 1.3176999999999999 -1.601033333333333 2.282233333333333 -1.9555333333333333 1.1753666666666667 -0.4412666666666667 2.5039 -0.4107666666666666 3.6772333333333336 0.0217 1.0248666666666666 0.37416666666666665 1.9209666666666667 1.0262333333333333 2.7336666666666667 1.7433666666666667 0.6357999999999999 0.5612666666666666 1.2241666666666666 1.1753666666666667 1.8789333333333333 1.7155999999999998 0.3450333333333333 0.2799333333333333 0.7158 0.5422666666666667 1.1401333333333332 0.6873 0.5639333333333333 0.19253333333333333 1.2309333333333332 0.010866666666666665 1.6342333333333334 -0.4236333333333333 0.37346666666666667 -0.40669999999999995 0.35043333333333326 -1.1096 -0.061 -1.4810666666666665 -0.26163333333333333 -0.2257 -0.7089999999999999 -0.18030000000000002 -0.8940666666666666 0.12066666666666666 -0.16199999999999998 0.23859999999999998 -0.07116666666666666 0.5361666666666667 0.0556 0.7672999999999999 -0.3369 -0.24603333333333333 -0.6744666666666667 -0.5890333333333333 -0.6730999999999999 -1.0364 -0.0698 -0.5171666666666667 0.3138333333333333 -0.9733666666666667 0.7733999999999999 -1.1543333333333332 0.8967666666666667 -0.3585666666666667 2.0213 -0.049499999999999995 2.5872666666666664 0.7401666666666666 0.5443 0.7367999999999999 0.5876999999999999 1.7054333333333331 0.49279999999999996 2.5832333333333333 -0.11456666666666666 0.8337333333333332 -0.5809 1.6118666666666668 -1.2723 2.0944666666666665 -0.9706333333333333 0.6927666666666666 -2.2009 0.9076333333333333 -3.3714999999999997 0.8927 -1.1252 -0.0305 -2.2388666666666666 -0.2846666666666666 -3.281366666666666 -0.7049333333333332 -1.7433999999999998 -0.7008666666666665 -3.3749333333333333 -1.6694999999999998 -5.175233333333333 -2.2293666666666665 -0.5971666666666666 -0.23183333333333334 -1.2323 -0.35723333333333335 -1.8708 -0.39586666666666664 -0.5083666666666666 -0.0033666666666666662 -0.9903 -0.0271 -1.4701999999999997 0.0054333333333333326 -0.5856666666666666 0.056266666666666666 -1.1679 0.1762333333333333 -1.7162666666666664 0.3911 -1.830833333333333 0.5693666666666666 -3.4867666666666666 1.5623999999999998 -5.263333333333333 2.2646333333333333 -1.500033333333333 0.5835999999999999 -3.1620666666666666 0.8547333333333333 -4.7543 0.5307333333333333 -0.8906633333333334 -0.18030000000000002 -1.7772633333333332 -0.5740999999999999 -2.3784966666666665 -1.2756666666666665 -0.5144733333333333 -0.5965 -0.7612016666666667 -1.3949666666666665 -0.7367999999999999 -2.1772 -0.028468666666666663 -0.7381333333333333 0.13353333333333334 -1.5223999999999998 0.62157 -2.0972 0.45414333333333334 -0.5449666666666666 1.18552 -0.8215333333333332 1.8877499999999998 -0.7605333333333333 0.45211333333333337 0.021033333333333334 0.91031 0.21826666666666666 1.1895766666666665 0.5822666666666666 0.21963333333333335 0.28806666666666664 0.2332 0.6825666666666665 0.13693333333333332 1.0194666666666665 -0.11726666666666666 0.30296666666666666 -0.35923333333333335 0.5395333333333333 -0.6222333333333333 0.7212000000000001 0.13419999999999999 -0.2264 0.2155333333333333 -0.5253 0.056933333333333336 -0.7618666666666667 -0.19523333333333331 -0.3152 -0.6758033333333333 -0.34706666666666663 -0.9299899999999999 -0.08813333333333334 -0.31315666666666664 0.3219666666666666 -0.37890333333333337 0.8479666666666665 -0.16877666666666663 1.2424666666666666 0.22775 0.41346666666666665 0.6988399999999999 0.6493666666666666 1.1550333333333334 0.6974999999999999 0.69 0.05963333333333333 1.2885333333333333 -0.36806666666666665 1.7948666666666666 -0.7828999999999999 1.0479333333333334 -0.9021999999999999 1.9914666666666667 -1.9345333333333334 3.1539333333333333 -2.6977666666666664 0.9584666666666666 -0.6425666666666666 2.0877333333333334 -1.0770666666666666 3.2528999999999995 -1.0716333333333332Z" stroke-width="0.3333"></path>
</svg>