<svg role="img" viewBox="0 0 36 36" xmlns="http://www.w3.org/2000/svg" id="Langchain--Streamline-Simple-Icons" height="36" width="36">
  <desc>
    Langchain Streamline Icon: https://streamlinehq.com
  </desc>
  <title>LangChain</title>
  <path d="M9.1482 8.87625C4.1038499999999996 8.87625 0 12.9693 0 18s4.104 9.12375 9.1482 9.12375h17.7036C31.89615 27.12375 36 23.0307 36 18s-4.104 -9.12375 -9.1482 -9.12375ZM8.9661 11.7765c0.7395 0.0186 1.53 0.37439999999999996 1.9095 0.9342 0.55095 0.6888 0.7167 1.6002 1.3416 2.2398000000000002 0.8406 0.9177 1.7985000000000002 1.7257500000000001 2.57415 2.7030000000000003 0.7338 0.8931 1.2579 1.94055 1.7153999999999998 2.99625 0.1866 0.35025 0.18855 0.7803 0.46499999999999997 1.07955 0.13620000000000002 0.18059999999999998 0.8019 0.67245 0.6574500000000001 0.84675 0.08325 0.18059999999999998 0.7053 0.42899999999999994 0.48944999999999994 0.60405 -0.29159999999999997 0.06 -0.61935 0.0714 -0.8424 -0.1611 -0.08234999999999999 0.189 -0.27449999999999997 0.08940000000000001 -0.42284999999999995 0.0648a6 6 0 0 0 -0.037500000000000006 0.1104c-0.49319999999999997 0.03285 -0.8631 -0.4689 -1.0979999999999999 -0.8474999999999999 -0.46665 -0.252 -0.9963 -0.4053 -1.4729999999999999 -0.669 -0.0273 0.43424999999999997 0.0678 0.97275 -0.34650000000000003 1.25295 -0.021 0.83475 1.2654 0.09840000000000002 1.3833 0.7206 -0.0915 0.01005 -0.1929 -0.014249999999999999 -0.2661 0.05595 -0.33585 0.3258 -0.72075 -0.24675000000000002 -1.10775 -0.0105 -0.5196 0.261 -0.5712 0.47414999999999996 -1.2144 0.528 -0.03555 -0.05385 -0.02145 -0.0888 0.00885 -0.12165000000000001 0.18105 -0.20984999999999998 0.19425 -0.4569 0.5034000000000001 -0.54645 -0.3183 -0.0501 -0.5848500000000001 0.12495 -0.8529 0.26355 -0.34845000000000004 0.14250000000000002 -0.3456 -0.32115000000000005 -0.8816999999999999 0.024600000000000004 -0.05940000000000001 -0.048299999999999996 -0.0312 -0.09225 0.0027 -0.1296 0.13620000000000002 -0.16605 0.3153 -0.1905 0.5175 -0.1812 -0.9945 -0.5529 -1.46265 0.67605 -1.9219500000000003 0.0648 -0.138 0.036449999999999996 -0.18975 0.1602 -0.27675 0.24780000000000002 -0.07500000000000001 -0.0822 -0.01845 -0.18180000000000002 -0.014850000000000002 -0.27855 -0.0897 -0.042 -0.2034 -0.0615 -0.17685 -0.2049 -0.17565 -0.05925 -0.2982 0.04425 -0.42899999999999994 0.1428 -0.11805000000000002 -0.0912 0.0798 -0.2238 0.1164 -0.31875 0.1053 -0.1824 0.34500000000000003 -0.037500000000000006 0.46665 -0.1689 0.3459 -0.19619999999999999 0.8280000000000001 0.1221 1.22325 0.06825 0.3045 0.03825 0.6816 -0.27375 0.5289 -0.585 -0.32565 -0.41505000000000003 -0.26849999999999996 -0.9579 -0.27585000000000004 -1.45425 -0.0402 -0.28935 -0.7364999999999999 -0.6573 -0.9378 -0.9693 -0.24885 -0.28095 -0.4425 -0.60705 -0.63645 -0.9273 -0.6999 -1.3512 -0.47969999999999996 -3.0875999999999997 -1.3615499999999998 -4.3420499999999995 -0.399 0.2199 -0.9187500000000001 0.1161 -1.2627 -0.1785 -0.18569999999999998 0.16875 -0.19380000000000003 0.38969999999999994 -0.20850000000000002 0.62415 -0.4455 -0.44430000000000003 -0.38894999999999996 -1.28385 -0.033 -1.7782499999999999 0.14535 -0.19530000000000003 0.31905 -0.35595 0.513 -0.4974 0.0438 -0.03195 0.05865000000000001 -0.06285 0.057749999999999996 -0.11205000000000001 0.1761 -0.7900499999999999 0.8646 -1.10865 1.6040999999999999 -1.09005m18.61065 0.6900000000000001c0.8362499999999999 0 1.6209 0.32385 2.211 0.9122999999999999s0.915 1.37175 0.915 2.2056c0 0.8340000000000001 -0.32505 1.617 -0.915 2.2047v0.0009l-1.353 1.34925a3.12 3.12 0 0 1 -1.28955 0.7748999999999999l-0.024600000000000004 0.007050000000000001 -0.0087 0.024600000000000004a3.0749999999999997 3.0749999999999997 0 0 1 -0.711 1.0962l-1.3527 1.34925c-0.5901000000000001 0.5886 -1.3755000000000002 0.91245 -2.21175 0.91245s-1.6209 -0.324 -2.211 -0.91245c-1.2195 -1.21605 -1.2195 -3.1940999999999997 0 -4.410299999999999l1.35285 -1.34925a3.084 3.084 0 0 1 1.287 -0.77145l0.025500000000000002 -0.00795 0.0087 -0.023700000000000002a3.1049999999999995 3.1049999999999995 0 0 1 0.7128 -1.1005500000000001l1.3527 -1.34925c0.5901000000000001 -0.5886 1.37565 -0.91245 2.21175 -0.91245zm0 1.34475a1.77 1.77 0 0 0 -1.2582 0.5193l-1.3527 1.34925a1.7715 1.7715 0 0 0 -0.51405 1.3878l0.00795 0.0858c0.04845000000000001 0.3978 0.22349999999999998 0.7565999999999999 0.5061 1.03755 0.195 0.1944 0.40995 0.3171 0.67065 0.40290000000000004a1.35 1.35 0 0 1 0.021 0.2373 1.326 1.326 0 0 1 -0.39135000000000003 0.9456l-0.0831 0.0831c-0.45195 -0.1542 -0.82875 -0.3795 -1.1691 -0.7188a3.09 3.09 0 0 1 -0.86415 -1.6452l-0.014850000000000002 -0.0867 -0.06915 0.0552a1.6500000000000001 1.6500000000000001 0 0 0 -0.1314 0.1191l-1.3536 1.34925c-0.69345 0.6915 -0.69345 1.818 0 2.5095 0.34665 0.34575 0.8025 0.5189999999999999 1.2591 0.51915 0.45645 0 0.9115500000000001 -0.1734 1.2582 -0.5193l1.35285 -1.34925c0.69345 -0.6915 0.69345 -1.81695 0 -2.5095a1.755 1.755 0 0 0 -0.6550499999999999 -0.41235 1.5 1.5 0 0 1 -0.021 -0.24164999999999998c0 -0.38865 0.15345 -0.7575000000000001 0.43515000000000004 -1.03845 0.45285 0.1542 0.855 0.40409999999999996 1.1943000000000001 0.7424999999999999 0.45105000000000006 0.44984999999999997 0.7491 1.0185 0.8634 1.6452l0.01575 0.0867 0.06825 -0.05595a1.6500000000000001 1.6500000000000001 0 0 0 0.13305 -0.1191l1.353 -1.3494c0.6933 -0.6915 0.6941999999999999 -1.8186 0 -2.51025a1.77 1.77 0 0 0 -1.25925 -0.5193Zm-14.959500000000002 7.735049999999999 -0.0009 0.0009c-0.11895 0.4617 -0.1572 1.2477 -0.759 1.2705 -0.0495 0.2664 0.1842 0.36675 0.39825 0.2811 0.21149999999999997 -0.09675 0.31215000000000004 0.07619999999999999 0.38354999999999995 0.24855 0.32655 0.047549999999999995 0.8090999999999999 -0.10874999999999999 0.8273999999999999 -0.4947 -0.48750000000000004 -0.28005 -0.63795 -0.8127 -0.8493 -1.3063500000000001" fill="#5bbe09" stroke-width="1.5"></path>
</svg>