<svg role="img" viewBox="0 0 32 32" xmlns="http://www.w3.org/2000/svg" id="Pydantic--Streamline-Simple-Icons" height="32" width="32">
  <desc>
    Pydantic Streamline Icon: https://streamlinehq.com
  </desc>
  <title>Pydantic</title>
  <path d="m31.768 23.087999999999997 -5.640000000000001 -7.821333333333333 -9.129333333333333 -12.661333333333333c-0.46399999999999997 -0.6399999999999999 -1.5346666666666666 -0.6399999999999999 -1.996 0l-9.126666666666665 12.658666666666665 -5.643999999999999 7.824a1.2333333333333334 1.2333333333333334 0 0 0 0.6133333333333333 1.8893333333333333l14.770666666666665 4.834666666666666h0.0026666666666666666a1.2266666666666666 1.2266666666666666 0 0 0 0.7626666666666666 0h0.0026666666666666666l14.769333333333332 -4.834666666666666c0.37333333333333335 -0.12266666666666666 0.6666666666666666 -0.41333333333333333 0.7866666666666666 -0.7893333333333332a1.2213333333333334 1.2213333333333334 0 0 0 -0.17333333333333334 -1.0999999999999999h0.0026666666666666666ZM16.00133333333333 5.426666666666667l5.92 8.210666666666667 -5.536 -1.8133333333333335c-0.042666666666666665 -0.013333333333333332 -0.088 -0.010666666666666666 -0.13066666666666665 -0.021333333333333333a1.0666666666666667 1.0666666666666667 0 0 0 -0.128 -0.021333333333333333c-0.042666666666666665 -0.005333333333333333 -0.08266666666666667 -0.021333333333333333 -0.12533333333333332 -0.021333333333333333s-0.08266666666666667 0.016 -0.12533333333333332 0.021333333333333333a0.9866666666666666 0.9866666666666666 0 0 0 -0.128 0.021333333333333333c-0.042666666666666665 0.008 -0.088 0.008 -0.128 0.021333333333333333L10.12 13.628l-0.034666666666666665 0.010666666666666666 5.92 -8.210666666666667h-0.0026666666666666666Zm-8.363999999999999 11.599999999999998 6.445333333333332 -2.1106666666666665 0.688 -0.224v12.253333333333332L3.2133333333333334 23.162666666666667l4.422666666666666 -6.133333333333333Zm9.596 9.916V14.693333333333332l7.133333333333333 2.336 4.421333333333333 6.1306666666666665 -11.554666666666666 3.784Z" fill="#ff1091" stroke-width="1.3333"></path>
</svg>